<?xml version="1.0" encoding="UTF-8"?>
<svg width="14px" height="14px" viewBox="0 0 14 14" version="1.1" xmlns="http://www.w3.org/2000/svg" xmlns:xlink="http://www.w3.org/1999/xlink">
    <!-- Generator: sketchtool 49 (51002) - http://www.bohemiancoding.com/sketch -->
    <title>10BE53AA-AC39-4AC1-9DA7-B1161E32E910</title>
    <desc>Created with sketchtool.</desc>
    <defs></defs>
    <g id="Page-1" stroke="none" stroke-width="1" fill="none" fill-rule="evenodd">
        <g id="牛顿PC首页4-4" transform="translate(-1298.000000, -6260.000000)" fill-rule="nonzero">
            <g id="Group-24" transform="translate(0.000000, 5826.000000)">
                <g id="china" transform="translate(1298.000000, 434.000000)">
                    <circle id="Oval" fill="#D80027" cx="7" cy="7" r="7"></circle>
                    <g id="Group" transform="translate(1.257812, 3.117188)" fill="#FFDA44">
                        <polygon id="Shape" points="2.57304687 1.14296875 3.17734375 3.00234375 5.13242187 3.00234375 3.55195312 4.15351562 4.15625 6.01289062 2.57304687 4.86445312 0.98984375 6.01289062 1.596875 4.15351562 0.013671875 3.00234375 1.96875 3.00234375"></polygon>
                        <polygon id="Shape" points="7.04101562 7.72460938 6.57890625 7.15585938 5.8953125 7.42109375 6.29179687 6.80585937 5.8296875 6.234375 6.53789062 6.42304687 6.93710937 5.8078125 6.97539062 6.540625 7.68632812 6.72929688 7 6.99179687"></polygon>
                        <polygon id="Shape" points="7.95976562 6.05664062 8.17851562 5.35664062 7.5796875 4.9328125 8.3125 4.921875 8.52851562 4.221875 8.76640625 4.91640625 9.49921875 4.90820312 8.91132812 5.34570312 9.14648438 6.04023437 8.54765625 5.61640625"></polygon>
                        <polygon id="Shape" points="9.1984375 2.02070312 8.87578125 2.6796875 9.40078125 3.19101563 8.67617188 3.08710937 8.35351563 3.74335937 8.22773438 3.02148438 7.50039063 2.91757813 8.15117188 2.57578125 8.02539063 1.85117187 8.55039063 2.3625"></polygon>
                        <polygon id="Shape" points="7.06015625 0.024609375 7.00546875 0.7546875 7.68632812 1.03085937 6.97265625 1.20585938 6.92070312 1.93867187 6.53515625 1.31523438 5.82148437 1.49023437 6.29453125 0.9296875 5.90625 0.308984375 6.58710937 0.58515625"></polygon>
                    </g>
                </g>
            </g>
        </g>
    </g>
</svg>