<?xml version="1.0" encoding="UTF-8"?>
<svg width="22px" height="22px" viewBox="0 0 22 22" version="1.1" xmlns="http://www.w3.org/2000/svg" xmlns:xlink="http://www.w3.org/1999/xlink">
    <!-- Generator: Sketch 49 (51002) - http://www.bohemiancoding.com/sketch -->
    <title>united-states</title>
    <desc>Created with Sketch.</desc>
    <defs></defs>
    <g id="Page-1" stroke="none" stroke-width="1" fill="none" fill-rule="evenodd">
        <g id="天眼tosee改-copy-2" transform="translate(-1561.000000, -64.000000)" fill-rule="nonzero">
            <g id="united-states" transform="translate(1561.000000, 64.000000)">
                <circle id="Oval" fill="#F0F0F0" cx="11" cy="11" r="11"></circle>
                <g id="Group" transform="translate(0.343750, 2.363281)" fill="#D80027">
                    <path d="M10.1780078,8.63671875 L21.65625,8.63671875 C21.65625,7.64388281 21.5239063,6.68207031 21.2773086,5.76713672 L10.1780078,5.76713672 L10.1780078,8.63671875 Z" id="Shape"></path>
                    <path d="M10.1780078,2.89759766 L20.0417422,2.89759766 C19.3683789,1.79880078 18.5074141,0.827578125 17.5035781,0.028015625 L10.1780078,0.028015625 L10.1780078,2.89759766 Z" id="Shape"></path>
                    <path d="M10.65625,19.6367188 C13.2450742,19.6367188 15.6245547,18.7419375 17.5035781,17.2454219 L3.80892187,17.2454219 C5.68794531,18.7419375 8.06742578,19.6367188 10.65625,19.6367188 Z" id="Shape"></path>
                    <path d="M1.27075781,14.3758398 L20.0417422,14.3758398 C20.582332,13.4937344 21.0015781,12.5295156 21.2773086,11.5062578 L0.0351914063,11.5062578 C0.310921875,12.5295156 0.730167969,13.4937344 1.27075781,14.3758398 Z" id="Shape"></path>
                </g>
                <path d="M5.09540625,1.71780469 L6.09782422,1.71780469 L5.16540234,2.39520703 L5.52157031,3.49129688 L4.58919141,2.81389453 L3.6568125,3.49129687 L3.96446875,2.54439453 C3.14350781,3.22824219 2.42395313,4.0294375 1.83098438,4.92215625 L2.15217578,4.92215625 L1.55864844,5.35334766 C1.46617969,5.50760547 1.37749219,5.6643125 1.2925,5.82333984 L1.57592188,6.69564844 L1.04714844,6.31146484 C0.915707031,6.58994531 0.795480469,6.87469922 0.687414063,7.16538281 L0.999667969,8.12650781 L2.15217578,8.12650781 L1.21975391,8.80391016 L1.57592188,9.9 L0.643542969,9.22259766 L0.0850351563,9.62839453 C0.0291328125,10.0777617 0,10.5354648 0,11 L11,11 C11,4.92490625 11,4.20870313 11,0 C8.82698438,0 6.80130859,0.630351563 5.09540625,1.71780469 Z M5.52157031,9.9 L4.58919141,9.22259766 L3.6568125,9.9 L4.01298047,8.80391016 L3.08055859,8.12650781 L4.23306641,8.12650781 L4.58919141,7.03041797 L4.94531641,8.12650781 L6.09782422,8.12650781 L5.16540234,8.80391016 L5.52157031,9.9 Z M5.16540234,5.59955859 L5.52157031,6.69564844 L4.58919141,6.01824609 L3.6568125,6.69564844 L4.01298047,5.59955859 L3.08055859,4.92215625 L4.23306641,4.92215625 L4.58919141,3.82606641 L4.94531641,4.92215625 L6.09782422,4.92215625 L5.16540234,5.59955859 Z M9.46721875,9.9 L8.53483984,9.22259766 L7.60246094,9.9 L7.95862891,8.80391016 L7.02620703,8.12650781 L8.17871484,8.12650781 L8.53483984,7.03041797 L8.89096484,8.12650781 L10.0434727,8.12650781 L9.11105078,8.80391016 L9.46721875,9.9 Z M9.11105078,5.59955859 L9.46721875,6.69564844 L8.53483984,6.01824609 L7.60246094,6.69564844 L7.95862891,5.59955859 L7.02620703,4.92215625 L8.17871484,4.92215625 L8.53483984,3.82606641 L8.89096484,4.92215625 L10.0434727,4.92215625 L9.11105078,5.59955859 Z M9.11105078,2.39520703 L9.46721875,3.49129688 L8.53483984,2.81389453 L7.60246094,3.49129688 L7.95862891,2.39520703 L7.02620703,1.71780469 L8.17871484,1.71780469 L8.53483984,0.621714844 L8.89096484,1.71780469 L10.0434727,1.71780469 L9.11105078,2.39520703 Z" id="Shape" fill="#0052B4"></path>
            </g>
        </g>
    </g>
</svg>