<svg id="图层_1" data-name="图层 1" xmlns="http://www.w3.org/2000/svg" viewBox="0 0 1477 427"><defs><style>.cls-1{fill:none;stroke:#000;stroke-width:14px;}.cls-2{font-size:164.22px;font-family:Arial-ItalicMT, Arial;font-style:italic;}</style></defs><title>png512_138-01</title><g id="logo"><path id="newton" d="M514,183.87,572.15,82.4,612,80.65c-13.37,18.32-26.45,38.09-39.83,58.16h0c4.94-6.69,9.89-13.38,16.57-20.07s11.63-13.37,20.07-20.06q10-10,20.06-14.83a36.69,36.69,0,0,1,21.52-6.69,34.47,34.47,0,0,1,18.31,5c5,3.2,6.69,9.88,6.69,16.57a46.3,46.3,0,0,1-4.94,20.06c-3.2,6.69-8.43,13.38-13.38,20.07s-8.43,13.37-13.37,18.31c-3.2,4.95-4.95,11.63-4.95,14.83,0,1.75,0,3.2,1.75,4.94s3.2,1.75,4.94,1.75c5,0,8.43-1.75,14.83-6.69,4.94-3.2,9.89-8.43,16.57-14.83a134.91,134.91,0,0,0,13.38-14.83,86.52,86.52,0,0,0,11.63-14.82c3.2-5,6.69-8.44,9.89-13.38,3.19-3.2,4.94-6.69,6.68-9.89l3.2,1.75c-6.69,8.43-13.37,16.57-20.06,26.46-6.69,8.43-14.83,18.32-21.52,25-8.43,8.44-14.83,14.83-23.26,18.32a36.68,36.68,0,0,1-21.51,6.69c-8.44,0-14.83-1.75-20.07-6.69s-6.68-11.63-6.68-20.06a46.3,46.3,0,0,1,4.94-20.06c3.2-6.69,8.43-11.63,11.63-16.58A86.19,86.19,0,0,0,636.7,104.2c3.2-4.94,4.94-8.43,4.94-13.37s-3.2-8.43-8.43-8.43c-3.2,0-8.43,1.74-13.37,4.94s-9.89,8.43-16.58,13.38c-4.94,4.94-11.63,11.63-16.57,20.06a108.63,108.63,0,0,0-16.57,21.51c-5,6.69-9.89,13.38-13.38,20.07-3.2,6.68-6.69,11.63-8.43,14.83Zm330.88-74.72c-4.94,6.69-9.88,13.37-14.83,18.32-4.94,6.68-11.63,13.37-18.31,20.06-13.38,13.08-25,21.51-38.38,28.2-11.63,6.69-26.46,9.89-41.58,9.89-13.38,0-23.26-3.2-29.95-8.43-6.69-6.69-9.89-14.83-9.89-26.46a53.38,53.38,0,0,1,8.44-28.21c4.94-8.43,13.37-16.57,21.51-23.26s18.32-11.63,28.21-16.57C760,79.49,770.16,76,778.3,76a55.69,55.69,0,0,1,23.26,4.94c6.69,3.2,8.43,8.44,8.43,14.83s-3.2,11.63-9.88,16.58-13.38,9.88-23.26,13.37a157.66,157.66,0,0,1-26.75,8.43c-8.44,1.75-16.58,3.2-21.52,4.95,0,1.74,0,3.19-1.75,4.94V149c0,3.2,0,6.69,1.75,9.89a14.68,14.68,0,0,0,3.2,8.43l6.69,6.69c3.19,1.74,6.68,1.74,11.63,1.74,8.43,0,18.31-3.2,28.2-9.88a325.85,325.85,0,0,0,31.69-25c6.69-6.69,11.63-13.37,16.58-18.32,4.94-6.68,9.88-11.63,13.37-16.57ZM781.79,87.63c0-4.94-3.2-8.43-8.43-8.43s-8.44,1.74-13.38,6.69-9.88,9.88-13.37,14.83c-3.2,6.68-8.44,11.63-9.89,18.31-3.2,6.69-4.94,11.63-4.94,14.83,8.43-1.74,14.83-4.94,21.51-8.43,6.69-3.2,11.63-8.43,16.58-11.63,4.94-4.94,8.43-8.43,9.88-13.37C780,97.52,781.79,92.57,781.79,87.63ZM962.93,79.2a90.9,90.9,0,0,1-6.69,11.63c-3.19,4.94-6.68,9.89-9.88,14.83s-8.43,11.63-11.63,18.32-8.43,13.37-11.63,18.31c-3.2,6.69-6.69,11.63-8.43,16.58s-3.2,9.88-3.2,13.37c0,6.69,3.2,9.89,11.63,9.89,4.94,0,9.88-1.75,14.83-4.94a87,87,0,0,0,14.83-11.63A56.85,56.85,0,0,0,964.39,149c3.19-6.69,6.68-11.63,9.88-16.57s4.94-9.89,6.69-14.83,3.2-8.43,3.2-9.89c0-1.74,0-3.19-1.75-4.94,0-1.74-1.74-4.94-1.74-6.69,0-4.94,1.74-8.43,4.94-13.37,3.2-3.2,6.69-6.69,11.63-6.69,6.69,0,13.38,1.75,16.57,6.69a28.59,28.59,0,0,1,5,16.57v8.43c0,1.75-1.75,5-1.75,8.44,6.69,4.94,13.38,8.43,20.07,8.43,3.19,0,6.68,0,8.43-1.75,3.2-1.74,4.94-1.74,6.69-3.19l4.94-5,4.94-4.94,1.75,3.2a68.37,68.37,0,0,1-11.63,9.88,28.64,28.64,0,0,1-16.58,5c-4.94,0-8.43,0-11.63-1.75s-6.69-3.2-9.88-4.94a105.31,105.31,0,0,1-14.83,26.46C992.59,156,984.45,162.36,976,169a90.65,90.65,0,0,1-28.21,14.83c-9.88,3.2-20.06,4.95-28.2,4.95-11.63,0-20.06-1.75-26.46-6.69-6.69-3.2-9.89-11.63-9.89-21.52v-6.69c0-1.74,1.75-3.19,1.75-4.94h0c-3.2,4.94-6.69,8.43-9.89,13.38s-8.43,8.43-11.63,13.37c-4.94,3.2-9.88,6.69-14.83,9.89s-11.63,3.2-16.57,3.2c-8.43,0-14.83-3.2-18.32-8.44-4.94-4.94-6.69-11.63-6.69-20.06,0-4.94,0-8.43,1.75-13.37s3.2-9.89,6.69-16.58a119,119,0,0,1,11.63-20.06l16.57-26.46L883,82.69a91.84,91.84,0,0,1-6.68,11.63c-3.2,4.94-6.69,9.88-9.89,14.83s-6.69,11.63-11.63,16.57c-3.2,6.69-6.69,11.63-9.89,18.32-3.19,4.94-4.94,11.63-8.43,16.57-1.74,4.95-3.2,8.43-3.2,11.63,0,4.95,3.2,8.43,8.44,8.43,4.94,0,11.63-3.19,18.31-8.43,6.69-4.94,13.38-13.37,18.32-21.51,4.94-6.69,8.43-13.38,13.38-20.07a118.85,118.85,0,0,0,11.63-20.06C906.52,103.91,910,99,913.21,94s4.94-8.43,6.69-11.63Zm81.41,6.69,1.75-5h23.26l23.26-41.57,39.83-1.75-25,43.32h38.09l-1.75,5H1104c-3.2,4.94-6.69,9.88-11.63,18.31A112.65,112.65,0,0,0,1079,127.47c-5,8.43-8.44,14.82-11.64,23.26-3.19,6.68-4.94,13.37-4.94,18.31,0,3.2,1.75,5,3.2,6.69,1.74,1.75,4.94,1.75,8.43,1.75,5,0,9.89-1.75,14.83-4.95s11.63-6.68,16.57-9.88c4.95-5,11.63-9.89,16.58-14.83s9.88-11.63,14.83-16.57,8.43-9.89,13.37-14.83c3.2-5,6.69-8.44,8.43-11.63l1.75,1.74c-6.69,8.43-13.38,16.57-20.06,25s-14.83,18.31-23.27,25c-8.43,8.43-16.57,14.83-26.45,20.06-9.89,5-20.07,8.44-31.7,8.44-8.43,0-14.83-1.75-20.06-6.69s-6.69-9.89-6.69-18.32c0-3.2,0-8.43,1.75-11.63s3.2-8.43,4.94-13.37a107.28,107.28,0,0,0,9.89-20.07c4.94-8.43,9.88-18.31,16.57-29.95l-20.94.88Zm269.25,21.51-3.2,3.2a21.86,21.86,0,0,1-6.69,4.94c-3.2,1.75-4.94,3.2-8.43,4.95-3.2,1.74-6.69,1.74-9.89,1.74-4.94,0-9.88-1.74-13.37-3.2-3.2-1.74-6.69-4.94-9.89-9.88h0c0,9.88-1.74,20.06-6.68,28.2-5,8.43-9.89,16.57-18.32,23.26a145.22,145.22,0,0,1-26.46,16.58c-9.89,3.19-20.06,6.68-30,6.68-6.69,0-11.63,0-18.32-1.74s-11.63-3.2-14.83-6.69a37.11,37.11,0,0,1-11.63-11.63,34.57,34.57,0,0,1-4.94-18.32c0-11.63,1.75-20.06,8.43-29.95,4.95-8.43,11.63-16.57,20.07-21.51,8.43-6.69,16.57-11.63,26.45-14.83a97.9,97.9,0,0,1,30-4.94,70.37,70.37,0,0,1,20.07,3.2,37.37,37.37,0,0,1,13.37,8.43,68.45,68.45,0,0,1,9.89,11.63c3.19,3.2,4.94,8.43,8.43,11.63s4.94,6.69,8.43,8.43a23,23,0,0,0,11.63,3.2c4.94,0,8.43-1.75,13.38-3.2,4.94-3.2,8.43-6.69,13.37-11.63v1.45Zm-96.24-28.2A20,20,0,0,0,1204,84.14c-4.94,3.2-8.43,6.69-13.37,11.63A56.47,56.47,0,0,0,1179,112.35c-3.2,6.68-6.69,13.37-9.89,20.06s-4.94,13.37-6.69,18.32a59.6,59.6,0,0,0-1.74,16.57c0,4.94,1.74,8.43,3.2,9.89a13.26,13.26,0,0,0,8.43,3.19,20,20,0,0,0,13.37-4.94c4.95-3.2,8.44-6.69,13.38-11.63a56.8,56.8,0,0,0,11.63-16.57c3.2-6.69,6.69-13.38,9.88-20.07s5-13.37,6.69-18.31A59.34,59.34,0,0,0,1229,92.28c0-4.94-1.75-8.43-3.2-9.88C1223.74,79.2,1220.54,79.2,1217.35,79.2Zm41.28,101.47L1316.79,79.2l39.83-1.74c-13.37,18.31-26.46,38.08-39.83,58.15h0c4.94-6.69,9.88-13.38,16.57-20.07s11.63-13.37,20.06-20.06q10-10,20.06-14.83c6.69-4.94,14.83-6.68,21.52-6.68s13.38,1.74,18.32,4.94,6.69,9.88,6.69,16.57a46.32,46.32,0,0,1-5,20.06c-3.2,6.69-8.43,13.38-13.37,20.07s-8.43,13.37-13.38,18.31c-3.2,5-4.94,11.64-4.94,14.83,0,1.75,0,3.2,1.74,4.95s3.2,1.74,5,1.74c4.94,0,8.43-1.74,14.83-6.69,4.94-3.19,9.88-8.43,16.57-14.83a136.68,136.68,0,0,0,13.37-14.82,86.55,86.55,0,0,0,11.64-14.83c3.19-5,6.68-8.43,9.88-13.38,3.2-3.2,4.94-6.69,6.69-9.88l3.2,1.74c-6.69,8.43-13.38,16.57-20.07,26.46-6.68,8.43-14.82,18.32-21.51,25-8.43,8.43-14.83,14.82-23.26,18.31-6.69,4.95-14.83,6.69-21.52,6.69-8.43,0-14.83-1.74-20.06-6.69s-6.69-11.63-6.69-20.06a46.48,46.48,0,0,1,4.94-20.06c3.2-6.69,8.44-11.63,11.63-16.57A86.55,86.55,0,0,0,1381.34,101c3.19-5,4.94-8.44,4.94-13.38s-3.2-8.43-8.43-8.43c-3.2,0-8.44,1.74-13.38,4.94s-9.88,8.43-16.57,13.38c-5,4.94-11.63,11.63-16.58,20.06a108.78,108.78,0,0,0-16.57,21.52c-4.94,6.68-9.88,13.37-13.37,20.06-3.2,6.69-6.69,11.63-8.44,14.83Z"/><g id="Page-1"><path id="Stroke-1" class="cls-1" d="M476.63,221.38c6.69,4.94,4.95,8.43-6.68,9.89C465,233,465,233,465,236.21c0,4.94,0,8.43-13.37,9.89-4.94,0-8.43,1.74-6.69,3.19,1.75,5-4.94,8.44-20.06,8.44-4.94,0-8.43,1.74-9.89,3.19-1.74,4.95-9.88,6.69-25,6.69-4.95,0-9.89,1.75-11.63,3.2-4.95,4.94-14.83,6.69-28.21,4.94-4.94,0-9.88,0-13.37,1.75-8.43,3.2-18.32,4.94-31.69,3.2-4.95,0-9.89,0-14.83,1.74-9.89,3.2-21.52,3.2-33.15,1.75a21.6,21.6,0,0,0-14.83,0c-11.63,3.19-23.26,1.74-33.14-1.75-3.2-1.74-9.89-1.74-14.83-1.74-13.38,1.74-23.26,0-31.7-3.2-3.19-1.75-8.43-1.75-13.37-1.75C135.86,277.5,126,274,121,270.81c-1.75-1.74-6.69-3.2-11.64-3.2-14.82,0-23.26-3.2-25-6.69,0-1.74-4.94-3.19-9.89-3.19-13.37-1.75-20.06-3.2-20.06-8.44,0-1.74-1.74-3.19-6.69-3.19-13.37-1.75-16.57-4.95-13.37-9.89,1.74-1.74,0-3.2-4.94-4.94-11.63-3.2-13.38-6.69-6.69-9.89,3.2-1.74,1.74-3.2-1.75-4.94-9.88-3.2-9.88-6.69,0-11.63,3.2-1.75,3.2-3.2,1.75-4.95-6.69-4.94-4.94-8.43,6.69-9.88,4.94-1.75,6.68-3.2,4.94-4.94-3.2-4.95,0-8.44,13.37-9.89,5,0,8.44-1.74,6.69-3.2-1.74-4.94,4.94-8.43,20.06-8.43,4.95,0,8.44-1.74,9.89-3.2,1.74-4.94,9.89-6.69,25-6.69,4.95,0,9.89-1.74,11.64-3.19,4.94-4.95,14.82-6.69,28.2-4.95,4.94,0,9.88,0,13.37-1.74,8.44-3.2,18.32-4.94,31.7-3.2,4.94,0,9.88,0,14.83-1.74,9.88-3.2,21.51-3.2,33.14-1.75a21.6,21.6,0,0,0,14.83,0c11.63-3.2,23.26-1.74,33.15,1.75,3.2,1.74,9.88,1.74,14.83,1.74,13.37-1.74,23.26,0,31.69,3.2,3.2,1.74,8.43,1.74,13.37,1.74,13.38-1.74,23.26,1.75,28.21,4.95,1.74,1.74,6.68,3.19,11.63,3.19,14.83,0,23.26,3.2,25,6.69,0,1.75,4.95,3.2,9.89,3.2,9.88,0,16.57,3.2,20.06,8.43,1.75,1.75,1.75,4.94,6.69,3.2,9.88,0,16.57,4.94,13.37,9.89-1.74,1.74,0,4.94,4.95,4.94,8.43,0,13.37,6.69,6.68,9.88-1.74,1.75-1.74,3.2,1.75,4.95,9.88,3.2,9.88,6.69,0,11.63C475.18,217.89,475.18,219.64,476.63,221.38Z"/><path id="Fill-3" d="M235.59,55.07c8.44-3.2,14.83-9.89,14.83-21.52,0-9.89-11.63-13.37-26.46-9.89-28.2,9.89-36.63,39.84-41.57,69.79-1.75,8.43-1.75,16.57-3.2,25-8.44,63.1-14.83,137.82-11.63,192.78,0,11.63,4.94,25-4.95,36.63-16.57,1.75-11.63-8.43-26.46-3.2-23.26,8.44-18.31,36.64,0,36.64,4.95,0,9.89-1.75,16.58-4.94,30-14.83,33.14-51.47,38.09-88.1,8.43-68,13.37-134.63,13.37-199.47h0c0-11.63-1.74-31.69,6.69-36.63,6.4-3.78,13.08,6.1,24.71,2.91"/><g id="Group-7"><path id="Fill-5" d="M348,25.79c-28.2,9.89-36.64,39.83-41.58,69.78-1.74,8.43-1.74,16.58-3.2,25-8.43,63.09-14.83,137.82-11.63,192.77,0,11.63,4.95,25-4.94,36.64-16.57,1.74-11.63-8.44-26.46-3.2-23.26,8.43-18.32,36.63,0,36.63,4.94,0,9.89-1.74,16.57-4.94,29.95-14.83,33.15-51.46,38.09-88.1,8.44-68,13.38-134.62,13.38-199.46h0c0-11.63-1.75-31.69,6.69-36.64s14.83,4.95,26.46,1.75c8.43-3.2,14.82-9.89,14.82-21.52-1.74-10.46-15.12-13.95-28.2-8.72"/></g></g><text class="cls-2" transform="translate(517.2 345.17)">explorer</text></g></svg>