<?xml version="1.0" encoding="UTF-8"?>
<svg width="118px" height="32px" viewBox="0 0 118 32" version="1.1" xmlns="http://www.w3.org/2000/svg" xmlns:xlink="http://www.w3.org/1999/xlink">
    <!-- Generator: Sketch 49.1 (51147) - http://www.bohemiancoding.com/sketch -->
    <title>Group 4 Copy</title>
    <desc>Created with Sketch.</desc>
    <defs></defs>
    <g id="Page-1" stroke="none" stroke-width="1" fill="none" fill-rule="evenodd">
        <g id="牛顿PC" transform="translate(-278.000000, -88.000000)">
            <g id="Group-4-Copy" transform="translate(279.000000, 88.000000)">
                <text id="newton" font-family="SnellRoundhand-Black, Snell Roundhand" font-size="19.8566865" font-weight="700" fill="#000000">
                    <tspan x="52.292584" y="20.6580333">newton</tspan>
                </text>
                <g id="Page-1">
                    <path d="M43.6167587,17.1799738 C44.2599063,17.5814969 44.0431549,17.9208373 42.9665045,18.1997714 C42.5649813,18.3028172 42.5365549,18.4307361 42.5418849,18.6314976 C42.5543214,19.148503 42.495692,19.3847976 41.2680262,19.5855591 C40.8096503,19.6584018 40.5449293,19.8094172 40.5786856,19.978199 C40.6764014,20.431245 40.0616802,20.7119558 38.7380753,20.8203315 C38.2441664,20.8629711 37.8870595,20.9926667 37.8159935,21.1596718 C37.6276685,21.6091645 36.8512721,21.8419058 35.4885808,21.856119 C34.978682,21.8632256 34.5487325,21.9662714 34.3746207,22.1243933 C33.9073615,22.5490128 33.0030462,22.7249013 31.6616748,22.644952 C31.1571059,22.6165256 30.6720802,22.6875916 30.4038059,22.8315003 C29.6789324,23.2134803 28.6857845,23.321856 27.4225857,23.1530742 C26.9482199,23.0891147 26.4276612,23.1264244 26.0741077,23.2472366 C25.1271528,23.5723638 24.0895886,23.6096734 22.957862,23.357389 C22.5367958,23.2614499 22.0020238,23.2614499 21.5809576,23.357389 C20.449231,23.6096734 19.4098902,23.5723638 18.4629352,23.2472366 C18.1111584,23.1264244 17.588823,23.0891147 17.1162339,23.1530742 C15.8512584,23.321856 14.8581106,23.2134803 14.1350137,22.8315003 C13.8667394,22.6875916 13.3781604,22.6165256 12.8771448,22.644952 C11.5339967,22.7249013 10.6296814,22.5490128 10.1641989,22.1243933 C9.99008711,21.9662714 9.55836094,21.8632256 9.05023878,21.856119 C7.68577089,21.8419058 6.9111511,21.6091645 6.72104945,21.1596718 C6.64998341,20.9926667 6.29287658,20.8629711 5.79896763,20.8203315 C4.47536271,20.7119558 3.86241815,20.431245 3.9583573,19.978199 C3.99389032,19.8094172 3.72916934,19.6584018 3.2707934,19.5855591 C2.04312763,19.3847976 1.61673142,19.0685537 1.99693471,18.6314976 C2.13551348,18.471599 1.97383825,18.3028172 1.57231514,18.1997714 C0.495664699,17.9208373 0.277136639,17.5814969 0.922060915,17.1799738 C1.16013214,17.0325118 1.10327931,16.8566234 0.778152192,16.7287045 C-0.103066654,16.3804809 -0.103066654,16.034034 0.778152192,15.6858104 C1.10327931,15.5578916 1.16013214,15.3837798 0.920284264,15.2345411 C0.275359988,14.8347946 0.495664699,14.4936777 1.57231514,14.2147435 C1.97383825,14.1116977 2.13551348,13.9446925 1.99693471,13.7830173 C1.61673142,13.3477378 2.04312763,13.0297173 3.2707934,12.8307324 C3.72916934,12.7578897 3.99389032,12.6050978 3.9583573,12.4380926 C3.86241815,11.9850466 4.47536271,11.7025591 5.79896763,11.5941834 C6.29287658,11.5533204 6.64998341,11.4218483 6.7192728,11.2566197 C6.9111511,10.8071271 7.68577089,10.5743858 9.05023878,10.5583959 C9.55836094,10.553066 9.99008711,10.4482436 10.1641989,10.2918983 C10.6296814,9.86550207 11.5339967,9.69139029 12.8771448,9.76956293 C13.3781604,9.79976599 13.8667394,9.72869996 14.1350137,9.58479123 C14.8581106,9.20103464 15.8512584,9.09265893 17.1162339,9.26144077 C17.588823,9.3254002 18.1111584,9.28986718 18.4629352,9.16727827 C19.4098902,8.84215116 20.449231,8.80661814 21.5809576,9.05890257 C22.0020238,9.15306506 22.5350191,9.15306506 22.957862,9.05890257 C24.087812,8.80661814 25.1271528,8.84215116 26.0741077,9.16727827 C26.4276612,9.28986718 26.9482199,9.3254002 27.4225857,9.26144077 C28.6875612,9.09265893 29.6789324,9.20103464 30.4038059,9.58479123 C30.6720802,9.72869996 31.1571059,9.79976599 31.6616748,9.76956293 C33.0030462,9.69139029 33.9073615,9.86550207 34.3746207,10.2918983 C34.5487325,10.4482436 34.978682,10.553066 35.4885808,10.5583959 C36.8512721,10.5743858 37.6276685,10.8071271 37.8159935,11.2566197 C37.8870595,11.4218483 38.2939126,11.5693103 38.7380753,11.5941834 C39.7205633,11.6474829 40.2944215,11.9299704 40.5786856,12.4380926 C40.6657415,12.5908846 40.800767,12.8396157 41.2662495,12.8307324 C42.1687882,12.8165192 42.9185349,13.3477378 42.5418849,13.7830173 C42.3997528,13.9446925 42.5472148,14.196977 42.9665045,14.2147435 C43.7979771,14.2502765 44.2599063,14.8347946 43.6167587,15.2345411 C43.3786875,15.3837798 43.4337636,15.5578916 43.7606674,15.6858104 C44.6401096,16.034034 44.6418862,16.3804809 43.7606674,16.7287045 C43.4337636,16.8566234 43.3786875,17.0325118 43.6167587,17.1799738 Z" id="Stroke-1" stroke="#000000" stroke-width="0.992834326"></path>
                    <path d="M23.6010515,3.60707162 C24.4112043,3.51468577 25.2924231,2.96570064 25.4736415,1.96899949 C25.6513066,0.970521681 24.626179,0.39488679 23.2190715,0.517475702 C20.3355671,0.767983479 18.9604393,3.42585322 17.9175452,6.1370225 C17.6172912,6.91874889 17.3454636,7.70402859 17.0718594,8.43778541 C14.977188,14.0733221 12.7776942,20.8601285 11.7987595,26.1456649 C11.597998,27.2329753 11.6832772,28.4908441 10.5604338,29.4129259 C8.99875771,29.2246009 9.62058552,28.4162248 8.11753886,28.5619101 C5.76347642,28.7893215 5.6195677,31.6372929 7.27007638,31.9144504 C7.78175184,31.9997296 8.23124452,31.9641966 8.86195559,31.8220646 C11.9249017,31.127394 13.063735,27.8121635 14.2985073,24.5040395 C16.6063769,18.3159644 18.4665304,12.2256051 19.7599322,6.19742863 C19.7652622,6.17610882 19.7688155,6.15301235 19.7741454,6.13169254 C20.0033334,5.02839234 20.2271914,3.14869568 21.1030803,2.92839097 C21.9558727,2.71519286 22.341406,3.75275699 23.6010515,3.60707162" id="Fill-3" fill="#000000"></path>
                    <g id="Group-7" transform="translate(18.749415, 0.308207)" fill="#000000">
                        <path d="M17.3402486,0.163608646 C14.4567442,0.414116423 13.0816164,3.07198617 12.0387224,5.78493209 C11.7384684,6.56665849 11.4648641,7.35016153 11.1930365,8.08391836 C9.09658847,13.719455 6.8988713,20.5062614 5.91993666,25.7917979 C5.71917511,26.8791082 5.80445435,28.1387537 4.68161098,29.0590589 C3.11993484,28.8725105 3.74176266,28.0623577 2.23871599,28.2080431 C-0.115346447,28.4372311 -0.25925517,31.2834258 1.38947686,31.5605833 C1.90292897,31.6458626 2.35242165,31.6121062 2.98313272,31.4699741 C6.04607887,30.773527 7.1849121,27.4582964 8.41968447,24.1501724 C10.727554,17.963874 12.5877075,11.8717381 13.8811093,5.84356157 C13.8864393,5.82224176 13.8899926,5.7991453 13.8953225,5.77782549 C14.1227339,4.67452528 14.3465919,2.79482863 15.2260341,2.57452392 C16.0770499,2.36132581 16.4608064,3.39888993 17.7222286,3.25320456 C18.534158,3.16081871 19.4136002,2.61183359 19.5948186,1.61690908 C19.7724837,0.616654625 18.7473562,0.0427963849 17.3402486,0.163608646" id="Fill-5"></path>
                    </g>
                </g>
            </g>
        </g>
    </g>
</svg>