<svg id="图层_1" data-name="图层 1" xmlns="http://www.w3.org/2000/svg" viewBox="0 0 88.5 21.81"><defs><style>.cls-1{fill:none;stroke:#000;}</style></defs><title>未标题-1</title><g id="logo"><path id="newton" d="M31.24,16.68l3.53-6.08,2.43-.11c-.82,1.14-1.6,2.31-2.35,3.5l0,0,1-1.22A14.65,14.65,0,0,1,37,11.59a8.17,8.17,0,0,1,1.25-.94,2.51,2.51,0,0,1,1.27-.38,1.75,1.75,0,0,1,1.09.33,1.2,1.2,0,0,1,.44,1,2.33,2.33,0,0,1-.34,1.17A12.52,12.52,0,0,1,40,14c-.28.39-.54.75-.77,1.1a1.69,1.69,0,0,0-.35.92.53.53,0,0,0,.09.3.35.35,0,0,0,.3.12,1.46,1.46,0,0,0,.86-.35,8.33,8.33,0,0,0,1-.87c.26-.26.52-.55.78-.85s.51-.59.74-.87l.61-.78.43-.56.15.09-1.23,1.6c-.44.55-.88,1-1.33,1.51a7.28,7.28,0,0,1-1.35,1.13,2.55,2.55,0,0,1-1.35.4,1.36,1.36,0,0,1-1.15-.45A1.72,1.72,0,0,1,37,15.23a2.08,2.08,0,0,1,.33-1.17A7.64,7.64,0,0,1,38.05,13l.74-.9a1.28,1.28,0,0,0,.33-.77.42.42,0,0,0-.47-.48,1.43,1.43,0,0,0-.75.32A8.13,8.13,0,0,0,37,12c-.34.35-.69.73-1,1.15s-.69.85-1,1.28-.59.82-.82,1.2-.4.68-.52.92ZM51.06,12.2a12.48,12.48,0,0,1-.88,1.14c-.32.38-.69.78-1.1,1.18a10.14,10.14,0,0,1-2.29,1.72,5.22,5.22,0,0,1-2.48.59,2.69,2.69,0,0,1-1.8-.54,2,2,0,0,1-.62-1.59A3.17,3.17,0,0,1,42.4,13a5.52,5.52,0,0,1,1.29-1.4,6.45,6.45,0,0,1,1.69-1,5,5,0,0,1,1.73-.37,3.17,3.17,0,0,1,1.36.26.91.91,0,0,1,.53.87,1.28,1.28,0,0,1-.57,1,5.69,5.69,0,0,1-1.38.77,11.93,11.93,0,0,1-1.6.52L44.18,14c0,.11,0,.22,0,.34s0,.23,0,.34a2.48,2.48,0,0,0,.07.61,1.29,1.29,0,0,0,.23.52,1.17,1.17,0,0,0,.43.36,1.47,1.47,0,0,0,.66.13,3.22,3.22,0,0,0,1.73-.6,13.08,13.08,0,0,0,1.86-1.48,13.33,13.33,0,0,0,1-1.14c.3-.36.55-.7.76-1Zm-3.77-1.27a.42.42,0,0,0-.48-.48,1.29,1.29,0,0,0-.82.39,5.26,5.26,0,0,0-.8.93,9.4,9.4,0,0,0-.63,1.1,3.44,3.44,0,0,0-.34,1,4.93,4.93,0,0,0,1.29-.48,4.59,4.59,0,0,0,1-.71,3.09,3.09,0,0,0,.61-.84A2.19,2.19,0,0,0,47.29,10.93Zm10.87-.52c-.1.16-.25.38-.44.66l-.64.93c-.23.35-.47.71-.71,1.09l-.65,1.11a10.1,10.1,0,0,0-.49,1,2.21,2.21,0,0,0-.18.75.57.57,0,0,0,.65.63,1.71,1.71,0,0,0,.93-.28,3.73,3.73,0,0,0,.86-.7,6.38,6.38,0,0,0,.73-1c.22-.36.42-.7.59-1a8.22,8.22,0,0,0,.4-.91,4.38,4.38,0,0,0,.17-.62,1.51,1.51,0,0,0-.07-.33,1.67,1.67,0,0,1-.07-.42,1.19,1.19,0,0,1,.28-.78.86.86,0,0,1,.73-.36,1.21,1.21,0,0,1,1,.38,1.49,1.49,0,0,1,.32,1,3.84,3.84,0,0,1,0,.5c0,.14-.06.3-.1.46a1.89,1.89,0,0,0,1.2.47,1.67,1.67,0,0,0,.52-.08,2.1,2.1,0,0,0,.42-.22,3,3,0,0,0,.33-.28c.1-.11.19-.2.27-.3l.1.16a2.93,2.93,0,0,1-.67.63,1.74,1.74,0,0,1-1.66.16,2.8,2.8,0,0,1-.56-.32,4.88,4.88,0,0,1-.88,1.56,7.77,7.77,0,0,1-1.39,1.29,6.7,6.7,0,0,1-1.68.87,4.88,4.88,0,0,1-1.71.33,3.18,3.18,0,0,1-1.6-.36,1.33,1.33,0,0,1-.63-1.28,1.59,1.59,0,0,1,0-.36c0-.12.05-.23.08-.32l0,0c-.18.25-.38.51-.6.79a5.9,5.9,0,0,1-.74.76,3.63,3.63,0,0,1-.87.57,2.19,2.19,0,0,1-1,.24,1.46,1.46,0,0,1-1.13-.47,1.76,1.76,0,0,1-.41-1.19,2.31,2.31,0,0,1,.14-.79,6.42,6.42,0,0,1,.44-1c.2-.37.44-.78.73-1.24l1-1.62,2.41-.11c-.1.18-.25.41-.44.7l-.62.93c-.22.33-.45.67-.68,1s-.43.72-.62,1.06-.34.66-.46.95a2.2,2.2,0,0,0-.17.75c0,.34.15.51.46.51a1.67,1.67,0,0,0,1.07-.51,8.36,8.36,0,0,0,1.13-1.26c.28-.37.54-.76.8-1.17s.51-.81.73-1.18.41-.73.58-1,.31-.55.41-.71Zm4.92.39.12-.28h1.42L66.07,8l2.38-.09-1.54,2.57h2.35l-.13.28H66.76l-.65,1.08c-.28.44-.56.91-.83,1.39s-.51.94-.71,1.39a2.68,2.68,0,0,0-.31,1.1.51.51,0,0,0,.17.42.69.69,0,0,0,.45.14,2.17,2.17,0,0,0,.94-.25,6.29,6.29,0,0,0,1-.65,8.05,8.05,0,0,0,1-.89c.32-.32.61-.65.89-1s.53-.62.76-.9L70,12l.13.07c-.38.46-.79,1-1.22,1.51a14.72,14.72,0,0,1-1.4,1.54,7.48,7.48,0,0,1-1.63,1.19,4,4,0,0,1-1.9.48,1.4,1.4,0,0,1-1.56-1.5,2.59,2.59,0,0,1,.09-.68,4.65,4.65,0,0,1,.33-.82q.24-.49.63-1.2c.26-.47.6-1.06,1-1.76Zm16.17,1.29-.22.23a2.57,2.57,0,0,1-.38.33,2.9,2.9,0,0,1-.52.29,1.53,1.53,0,0,1-.64.13,1.42,1.42,0,0,1-.79-.21,2.47,2.47,0,0,1-.65-.57h0A3.62,3.62,0,0,1,75.6,14a4.72,4.72,0,0,1-1.1,1.42,5.39,5.39,0,0,1-1.58,1,5,5,0,0,1-3,.24,2.47,2.47,0,0,1-.94-.39,2.07,2.07,0,0,1-.67-.71,2.29,2.29,0,0,1-.25-1.1,3.38,3.38,0,0,1,.46-1.76,4.5,4.5,0,0,1,1.18-1.35,5.35,5.35,0,0,1,1.64-.86,6.47,6.47,0,0,1,1.81-.3,3.07,3.07,0,0,1,1.22.21,2.71,2.71,0,0,1,.81.5,2.94,2.94,0,0,1,.57.66c.16.23.31.45.47.65a2.46,2.46,0,0,0,.51.51,1.24,1.24,0,0,0,.71.2,1.6,1.6,0,0,0,.81-.24,3.27,3.27,0,0,0,.82-.67Zm-5.78-1.74a1.55,1.55,0,0,0-.83.28,4.57,4.57,0,0,0-.81.74,8.19,8.19,0,0,0-.73,1,10.56,10.56,0,0,0-.59,1.16,7.33,7.33,0,0,0-.4,1.13,3.31,3.31,0,0,0-.14,1,1,1,0,0,0,.18.64.56.56,0,0,0,.5.23,1.43,1.43,0,0,0,.83-.28,4.25,4.25,0,0,0,.81-.74,6.78,6.78,0,0,0,.74-1,11.51,11.51,0,0,0,.59-1.16,8.19,8.19,0,0,0,.4-1.14,3.69,3.69,0,0,0,.14-.95,1,1,0,0,0-.18-.63A.6.6,0,0,0,73.47,10.35ZM76,16.51l3.53-6.08,2.43-.11c-.82,1.14-1.6,2.31-2.35,3.5l0,0,1-1.22a13.22,13.22,0,0,1,1.15-1.21A8.17,8.17,0,0,1,83,10.48a2.51,2.51,0,0,1,1.27-.38,1.75,1.75,0,0,1,1.09.33,1.2,1.2,0,0,1,.44,1,2.36,2.36,0,0,1-.34,1.17q-.36.6-.78,1.17c-.28.38-.54.75-.77,1.1a1.69,1.69,0,0,0-.35.92.53.53,0,0,0,.09.3.35.35,0,0,0,.3.12,1.46,1.46,0,0,0,.86-.35,8.33,8.33,0,0,0,1-.87c.26-.26.52-.55.78-.85s.51-.59.74-.88.43-.53.61-.77l.43-.56.15.09c-.39.51-.8,1.05-1.24,1.6a18.05,18.05,0,0,1-1.32,1.51,7,7,0,0,1-1.36,1.13,2.49,2.49,0,0,1-1.34.4,1.39,1.39,0,0,1-1.16-.45,1.83,1.83,0,0,1-.39-1.17A2.25,2.25,0,0,1,82,13.89a8.62,8.62,0,0,1,.74-1.05l.75-.9a1.28,1.28,0,0,0,.33-.77.42.42,0,0,0-.47-.48,1.43,1.43,0,0,0-.75.32,8.15,8.15,0,0,0-1,.83c-.34.35-.68.73-1,1.15s-.68.85-1,1.28-.59.82-.82,1.2a10.3,10.3,0,0,0-.52.92Z" transform="translate(0 -1.68)"/><g id="Page-1"><path id="Stroke-1" class="cls-1" d="M28,13.64c.41.25.27.47-.41.65-.25.06-.27.14-.27.27,0,.33,0,.48-.8.61-.29,0-.45.14-.43.25.06.28-.33.46-1.16.53-.31,0-.54.11-.58.22-.12.28-.61.43-1.47.44a1.25,1.25,0,0,0-.71.18,2.38,2.38,0,0,1-1.71.33,1.75,1.75,0,0,0-.79.12,3.06,3.06,0,0,1-1.88.21,2,2,0,0,0-.86.07,3.58,3.58,0,0,1-2,.07,2,2,0,0,0-.87,0,3.52,3.52,0,0,1-2-.07,2.19,2.19,0,0,0-.86-.05,3.14,3.14,0,0,1-1.88-.2,1.66,1.66,0,0,0-.79-.11,2.43,2.43,0,0,1-1.72-.33,1.26,1.26,0,0,0-.7-.16c-.87,0-1.36-.15-1.48-.44,0-.1-.27-.18-.58-.21-.84-.06-1.22-.24-1.16-.53,0-.1-.15-.2-.44-.24-.78-.13-1-.32-.81-.6.09-.1,0-.21-.27-.27C.74,14.21.6,14,1,13.74c.15-.09.11-.2-.09-.28q-.84-.33,0-.66c.2-.08.24-.19.08-.28-.4-.26-.27-.47.41-.65.26-.07.36-.17.27-.27-.24-.28,0-.48.8-.61.29-.05.46-.14.44-.25-.06-.28.32-.46,1.16-.54.31,0,.54-.11.58-.21.12-.29.61-.43,1.47-.45a1.17,1.17,0,0,0,.7-.17A2.46,2.46,0,0,1,8.54,9a1.55,1.55,0,0,0,.8-.12,3.19,3.19,0,0,1,1.88-.21,2,2,0,0,0,.85-.06,3.62,3.62,0,0,1,2-.08,2.13,2.13,0,0,0,.87,0,3.63,3.63,0,0,1,2,.06,2,2,0,0,0,.85.06,3.09,3.09,0,0,1,1.89.2,1.64,1.64,0,0,0,.79.11,2.44,2.44,0,0,1,1.72.32,1.17,1.17,0,0,0,.7.17c.86,0,1.35.15,1.47.43.05.11.3.2.59.21.62,0,1,.21,1.16.53a.42.42,0,0,0,.44.25c.57,0,1,.32.8.6-.09.1,0,.26.27.27.53,0,.82.39.42.64-.15.1-.12.21.09.29.55.22.56.43,0,.66C27.86,13.44,27.83,13.55,28,13.64Z" transform="translate(0 -1.68)"/><path id="Fill-3" d="M13.48,3.65a1.31,1.31,0,0,0,.92-1.27c0-.64-.75-.85-1.59-.58C11.07,2.37,10.6,4.2,10.34,6c-.07.52-.13,1-.19,1.53A73.92,73.92,0,0,0,9.42,19.2c0,.7.27,1.46-.29,2.19-1,.1-.72-.48-1.63-.18-1.41.48-1.1,2.25,0,2.19a2.38,2.38,0,0,0,1-.29c1.79-.86,2-3.06,2.31-5.27a83.33,83.33,0,0,0,.76-12v0c0-.71-.14-1.9.37-2.16s.88.33,1.63.06" transform="translate(0 -1.68)"/><g id="Group-7"><path id="Fill-5" d="M20.19,1.9c-1.74.56-2.21,2.39-2.46,4.21-.08.52-.13,1-.2,1.53a73.86,73.86,0,0,0-.72,11.65,2.91,2.91,0,0,1-.3,2.19c-1,.11-.72-.48-1.62-.18-1.42.48-1.1,2.25-.05,2.19a2.57,2.57,0,0,0,1-.28c1.78-.87,2-3.07,2.3-5.28a83.33,83.33,0,0,0,.76-12v0c0-.71-.15-1.9.36-2.16s.88.33,1.63.06a1.31,1.31,0,0,0,.92-1.27c0-.64-.74-.85-1.59-.57" transform="translate(0 -1.68)"/></g></g></g></svg>