<?xml version="1.0" encoding="utf-8"?>
<!-- Generator: Adobe Illustrator 21.0.2, SVG Export Plug-In . SVG Version: 6.00 Build 0)  -->
<svg version="1.1" id="图层_1" xmlns="http://www.w3.org/2000/svg" xmlns:xlink="http://www.w3.org/1999/xlink" x="0px" y="0px"
	 viewBox="0 0 111.7 28" style="enable-background:new 0 0 111.7 28;" xml:space="preserve">
<style type="text/css">
	.st0{fill:#FFFFFF;}
	.st1{font-family:'SourceHanSansCN-Medium-GBpc-EUC-H';}
	.st2{font-size:14.4134px;}
</style>
<g>
	<g>
		<path class="st0" d="M8.6,2.6v5.7L3.6,5.5L8.6,2.6 M9.4,1L1.6,5.5l7.9,4.6V1.1L9.4,1L9.4,1z"/>
	</g>
	<g>
		<path class="st0" d="M10.2,2.6l4.9,2.8l-4.9,2.8V2.6 M9.4,1L9.2,1.1v8.7L9.4,10l7.5-4.3V5.4L9.4,1L9.4,1z"/>
	</g>
	<g>
		<path class="st0" d="M24.8,2.6l4.9,2.8l-4.9,2.8V2.6 M24,1l-0.2,0.1v8.9l7.9-4.6L24,1L24,1z"/>
	</g>
	<g>
		<path class="st0" d="M23.2,2.6v5.7l-4.9-2.8L23.2,2.6 M24,1l-7.5,4.3v0.3L24,10l0.2-0.1V1.1L24,1L24,1z"/>
	</g>
	<g>
		<path class="st0" d="M15.9,6.9v5.7L11,9.7L15.9,6.9 M16.7,5.2L9,9.7l7.7,4.5l0.2-0.1V5.4L16.7,5.2L16.7,5.2z"/>
	</g>
	<g>
		<path class="st0" d="M17.5,6.9l4.9,2.8l-4.9,2.8V6.9 M16.7,5.2l-0.2,0.1v8.7l0.2,0.1l7.7-4.5L16.7,5.2L16.7,5.2z"/>
	</g>
</g>
<text transform="matrix(1 0 0 1 40.9128 19.1867)" class="st0 st1 st2">CHAIN</text>
<g>
	<g>
		<path class="st0" d="M8.6,14.1v5.7L3.6,17L8.6,14.1 M9.4,12.5L1.6,17l7.9,4.6v-8.9L9.4,12.5L9.4,12.5z"/>
	</g>
	<g>
		<path class="st0" d="M10.2,14.1l4.9,2.8l-4.9,2.8V14.1 M9.4,12.5l-0.2,0.1v8.7l0.2,0.1l7.5-4.3v-0.3L9.4,12.5L9.4,12.5z"/>
	</g>
	<g>
		<path class="st0" d="M24.8,14.1l4.9,2.8l-4.9,2.8V14.1 M24,12.5l-0.2,0.1v8.9l7.9-4.6L24,12.5L24,12.5z"/>
	</g>
	<g>
		<path class="st0" d="M23.2,14.1v5.7L18.3,17L23.2,14.1 M24,12.5l-7.5,4.3v0.3l7.5,4.3l0.2-0.1v-8.7L24,12.5L24,12.5z"/>
	</g>
	<g>
		<path class="st0" d="M15.9,18.4V24L11,21.2L15.9,18.4 M16.7,16.7L9,21.2l7.7,4.5l0.2-0.1v-8.7L16.7,16.7L16.7,16.7z"/>
	</g>
	<g>
		<path class="st0" d="M17.5,18.4l4.9,2.8L17.5,24V18.4 M16.7,16.7l-0.2,0.1v8.7l0.2,0.1l7.7-4.5L16.7,16.7L16.7,16.7z"/>
	</g>
</g>
</svg>
