<svg id="图层_1" data-name="图层 1" xmlns="http://www.w3.org/2000/svg" xmlns:xlink="http://www.w3.org/1999/xlink" viewBox="0 0 21 21"><defs><style>.cls-1{fill:none;}.cls-2{clip-path:url(#clip-path);}.cls-3{fill:#979797;}</style><clipPath id="clip-path"><rect class="cls-1" x="0.04" width="21" height="21"/></clipPath></defs><title>区块链浏览器</title><g class="cls-2"><path class="cls-3" d="M10.53,0A10.48,10.48,0,1,0,21,10.49,10.49,10.49,0,0,0,10.53,0Zm0,20.36a9.88,9.88,0,1,1,9.89-9.88,9.88,9.88,0,0,1-9.89,9.88Zm0,0"/></g><path class="cls-3" d="M16.11,10.21H6.5l3.66-4.92a.29.29,0,0,0-.06-.42.3.3,0,0,0-.42.06l-3.9,5.2a.3.3,0,0,0,0,.36l3.87,5.2a.3.3,0,0,0,.48-.36L6.78,10.81h9.33a.3.3,0,0,0,.3-.3.31.31,0,0,0-.3-.3Zm0,0"/></svg>